<?xml version="1.0" encoding="utf-8"?>
<!-- Generator: Adobe Illustrator 25.2.1, SVG Export Plug-In . SVG Version: 6.00 Build 0)  -->
<svg version="1.1" id="Слой_1" xmlns="http://www.w3.org/2000/svg" xmlns:xlink="http://www.w3.org/1999/xlink" x="0px" y="0px"
	 viewBox="0 0 1000 1000" style="enable-background:new 0 0 1000 1000;" xml:space="preserve">
<style type="text/css">
	.st0{display:none;}
	.st1{fill:#1D1D1B;}
	.st2{fill:none;stroke:#1D1D1B;stroke-width:49;stroke-miterlimit:10;}
</style>
<rect class="st0" width="1000" height="1000"/>
<circle class="st1" cx="502.9" cy="468.72" r="74.48"/>
<path class="st1" d="M238.07,479.76v201.38c0,0,220.69-11.03,253.79,129.65V609.41C491.87,609.41,486.35,479.76,238.07,479.76z"/>
<path class="st1" d="M513.93,797V614.93c0,0-5.52-129.65,253.79-135.17C767.73,479.76,753.93,744.58,513.93,797z"/>
<rect x="461.52" y="212.17" class="st1" width="77.24" height="66.21"/>
<rect x="331.87" y="259.07" transform="matrix(0.7071 -0.7071 0.7071 0.7071 -98.0847 347.5497)" class="st1" width="77.24" height="66.21"/>
<rect x="596.69" y="259.07" transform="matrix(0.7071 0.7071 -0.7071 0.7071 392.6768 -363.6584)" class="st1" width="77.24" height="66.21"/>
<path class="st1" d="M679.44,374.93c-31.96-66.89-100.23-113.1-179.3-113.1s-147.34,46.22-179.3,113.1h-60.7v80H742.9v-80H679.44z
	 M373.59,442.34c1.21-30,16.21-45.34,16.21-45.34l51.94,29.22l22.37,16.13H373.59z M456.52,421.83l-60.34-35.69
	c12.93-24.48,37.24-35.17,37.24-35.17l33.62,56.72L456.52,421.83z M496.69,408.72h-19.77l-1.97-9.06l-32.05-54.62
	c0,0,20.69-14.48,53.79-13.33V408.72z M507.04,404.13v-9.77v-62.71c0,0,31.49,0.06,52.64,14.32l-38.03,65.52L507.04,404.13z
	 M535.77,409.87l3.66-6.07l30.59-52.84c0,0,26.67,15.63,36.09,35.43l-58.39,35.43L535.77,409.87z M557.61,442.34l5.54-17.42
	L612.55,397c0,0,13.33,18.05,15.63,45.34H557.61z"/>
<circle class="st2" cx="500.14" cy="503.67" r="445.05"/>
</svg>
